<svg width="3999" height="1277" viewBox="0 0 3999 1277" fill="none" xmlns="http://www.w3.org/2000/svg">
<path d="M360.75 916H185.693V348.727H368.506C423.534 348.727 470.622 360.084 509.77 382.797C548.918 405.325 578.925 437.733 599.791 480.02C620.658 522.122 631.091 572.534 631.091 631.256C631.091 690.347 620.565 741.22 599.514 783.876C578.463 826.348 547.81 859.033 507.554 881.93C467.298 904.643 418.364 916 360.75 916ZM254.386 855.062H356.318C403.222 855.062 442.092 846.014 472.93 827.918C503.768 809.821 526.759 784.061 541.901 750.638C557.043 717.214 564.614 677.42 564.614 631.256C564.614 585.46 557.135 546.036 542.178 512.982C527.22 479.743 504.876 454.26 475.146 436.533C445.416 418.621 408.392 409.665 364.074 409.665H254.386V855.062Z" fill="#E30613"/>
<path d="M942.205 601.895V662.832H694.023V601.895H942.205ZM1337.31 490.545C1333.99 462.477 1320.51 440.688 1296.87 425.176C1273.24 409.665 1244.25 401.909 1209.9 401.909C1184.79 401.909 1162.81 405.972 1143.98 414.097C1125.33 422.222 1110.74 433.393 1100.21 447.612C1089.87 461.831 1084.7 477.989 1084.7 496.085C1084.7 511.227 1088.3 524.246 1095.5 535.141C1102.89 545.851 1112.31 554.807 1123.76 562.009C1135.21 569.026 1147.21 574.842 1159.77 579.459C1172.32 583.891 1183.86 587.491 1194.39 590.261L1252 605.773C1266.78 609.651 1283.21 615.006 1301.31 621.838C1319.59 628.67 1337.04 637.996 1353.66 649.814C1370.46 661.447 1384.31 676.405 1395.21 694.686C1406.1 712.967 1411.55 735.403 1411.55 761.994C1411.55 792.648 1403.52 820.347 1387.45 845.091C1371.57 869.835 1348.3 889.501 1317.65 904.089C1287.18 918.678 1250.16 925.972 1206.58 925.972C1165.95 925.972 1130.77 919.416 1101.04 906.305C1071.5 893.195 1048.23 874.913 1031.24 851.462C1014.44 828.01 1004.93 800.773 1002.71 769.75H1073.62C1075.47 791.17 1082.67 808.898 1095.23 822.932C1107.97 836.781 1124.03 847.122 1143.42 853.955C1163 860.602 1184.05 863.926 1206.58 863.926C1232.8 863.926 1256.34 859.679 1277.21 851.185C1298.07 842.506 1314.6 830.503 1326.79 815.176C1338.98 799.665 1345.07 781.568 1345.07 760.886C1345.07 742.051 1339.81 726.724 1329.28 714.906C1318.76 703.088 1304.91 693.486 1287.73 686.099C1270.56 678.713 1252 672.25 1232.06 666.71L1162.26 646.767C1117.94 634.026 1082.85 615.837 1057 592.2C1031.15 568.564 1018.22 537.634 1018.22 499.409C1018.22 467.648 1026.81 439.949 1043.98 416.312C1061.34 392.491 1084.61 374.026 1113.79 360.915C1143.15 347.619 1175.92 340.972 1212.12 340.972C1248.68 340.972 1281.18 347.527 1309.62 360.638C1338.05 373.564 1360.58 391.291 1377.2 413.82C1394.01 436.348 1402.87 461.923 1403.79 490.545H1337.31ZM1518.73 1075.55C1507.65 1075.55 1497.77 1074.62 1489.09 1072.78C1480.41 1071.11 1474.41 1069.45 1471.09 1067.79L1487.71 1010.18C1503.59 1014.24 1517.62 1015.72 1529.81 1014.61C1542 1013.5 1552.8 1008.05 1562.22 998.266C1571.82 988.663 1580.59 973.06 1588.53 951.455L1600.72 918.216L1443.39 490.545H1514.3L1631.74 829.58H1636.17L1753.62 490.545H1824.52L1643.93 978.045C1635.8 1000.02 1625.74 1018.21 1613.74 1032.61C1601.73 1047.2 1587.79 1058 1571.91 1065.02C1556.21 1072.04 1538.49 1075.55 1518.73 1075.55ZM2173.17 585.83L2114.45 602.449C2110.75 592.662 2105.31 583.152 2098.11 573.919C2091.09 564.501 2081.49 556.746 2069.3 550.652C2057.11 544.558 2041.51 541.511 2022.49 541.511C1996.45 541.511 1974.75 547.513 1957.4 559.516C1940.22 571.334 1931.64 586.384 1931.64 604.665C1931.64 620.915 1937.54 633.749 1949.36 643.166C1961.18 652.584 1979.65 660.432 2004.76 666.71L2067.91 682.222C2105.95 691.455 2134.3 705.581 2152.95 724.601C2171.6 743.436 2180.93 767.719 2180.93 797.449C2180.93 821.824 2173.91 843.614 2159.87 862.818C2146.02 882.023 2126.64 897.165 2101.71 908.244C2076.78 919.324 2047.79 924.864 2014.73 924.864C1971.34 924.864 1935.42 915.446 1906.98 896.611C1878.55 877.776 1860.54 850.261 1852.97 814.068L1915.02 798.557C1920.93 821.455 1932.1 838.628 1948.53 850.077C1965.15 861.526 1986.85 867.25 2013.62 867.25C2044.09 867.25 2068.28 860.787 2086.2 847.861C2104.29 834.75 2113.34 819.054 2113.34 800.773C2113.34 786 2108.17 773.628 2097.83 763.656C2087.49 753.5 2071.61 745.929 2050.19 740.943L1979.28 724.324C1940.31 715.091 1911.69 700.78 1893.41 681.391C1875.31 661.817 1866.27 637.349 1866.27 607.989C1866.27 583.983 1873.01 562.747 1886.49 544.281C1900.15 525.815 1918.71 511.32 1942.16 500.794C1965.8 490.268 1992.57 485.006 2022.49 485.006C2064.59 485.006 2097.64 494.239 2121.65 512.705C2145.84 531.17 2163.01 555.545 2173.17 585.83ZM2425.35 490.545V545.943H2204.87V490.545H2425.35ZM2269.13 388.614H2334.5V794.125C2334.5 812.591 2337.18 826.44 2342.53 835.673C2348.07 844.722 2355.09 850.815 2363.59 853.955C2372.26 856.909 2381.41 858.386 2391.01 858.386C2398.21 858.386 2404.12 858.017 2408.73 857.278C2413.35 856.355 2417.04 855.616 2419.81 855.062L2433.11 913.784C2428.68 915.446 2422.49 917.108 2414.55 918.77C2406.61 920.616 2396.55 921.54 2384.36 921.54C2365.89 921.54 2347.8 917.57 2330.07 909.629C2312.53 901.689 2297.94 889.594 2286.31 873.344C2274.86 857.094 2269.13 836.597 2269.13 811.852V388.614ZM2658.5 924.864C2617.5 924.864 2582.14 915.815 2552.41 897.719C2522.86 879.438 2500.06 853.955 2483.99 821.27C2468.11 788.401 2460.17 750.176 2460.17 706.597C2460.17 663.017 2468.11 624.608 2483.99 591.369C2500.06 557.946 2522.4 531.909 2551.02 513.259C2579.83 494.423 2613.44 485.006 2651.85 485.006C2674.01 485.006 2695.89 488.699 2717.49 496.085C2739.1 503.472 2758.77 515.474 2776.49 532.094C2794.22 548.528 2808.35 570.318 2818.87 597.463C2829.4 624.608 2834.66 658.031 2834.66 697.733V725.432H2506.71V668.926H2768.18C2768.18 644.92 2763.38 623.5 2753.78 604.665C2744.36 585.83 2730.88 570.964 2713.34 560.07C2695.98 549.175 2675.48 543.727 2651.85 543.727C2625.81 543.727 2603.28 550.19 2584.26 563.116C2565.43 575.858 2550.93 592.477 2540.78 612.974C2530.62 633.472 2525.54 655.446 2525.54 678.898V716.568C2525.54 748.699 2531.08 775.936 2542.16 798.28C2553.42 820.439 2569.03 837.335 2588.97 848.969C2608.91 860.418 2632.09 866.142 2658.5 866.142C2675.67 866.142 2691.18 863.741 2705.03 858.94C2719.06 853.955 2731.16 846.568 2741.31 836.781C2751.47 826.81 2759.32 814.437 2764.86 799.665L2828.01 817.392C2821.36 838.812 2810.19 857.648 2794.5 873.898C2778.8 889.963 2759.41 902.52 2736.33 911.568C2713.25 920.432 2687.3 924.864 2658.5 924.864ZM2895.1 916V490.545H2958.25V557.023H2963.79C2972.66 534.31 2986.97 516.675 3006.73 504.118C3026.48 491.376 3050.21 485.006 3077.91 485.006C3105.98 485.006 3129.34 491.376 3147.99 504.118C3166.82 516.675 3181.51 534.31 3192.03 557.023H3196.46C3207.36 535.048 3223.7 517.598 3245.49 504.672C3267.28 491.561 3293.41 485.006 3323.88 485.006C3361.92 485.006 3393.03 496.916 3417.22 520.737C3441.41 544.374 3453.51 581.213 3453.51 631.256V916H3388.14V631.256C3388.14 599.864 3379.55 577.428 3362.38 563.947C3345.21 550.467 3324.99 543.727 3301.72 543.727C3271.8 543.727 3248.63 552.776 3232.19 570.872C3215.76 588.784 3207.54 611.497 3207.54 639.011V916H3141.06V624.608C3141.06 600.418 3133.22 580.936 3117.52 566.163C3101.82 551.206 3081.6 543.727 3056.86 543.727C3039.87 543.727 3023.99 548.251 3009.22 557.3C2994.63 566.348 2982.81 578.905 2973.76 594.97C2964.9 610.851 2960.47 629.224 2960.47 650.091V916H2895.1ZM3835.39 585.83L3776.67 602.449C3772.98 592.662 3767.53 583.152 3760.33 573.919C3753.31 564.501 3743.71 556.746 3731.52 550.652C3719.33 544.558 3703.73 541.511 3684.71 541.511C3658.67 541.511 3636.98 547.513 3619.62 559.516C3602.44 571.334 3593.86 586.384 3593.86 604.665C3593.86 620.915 3599.77 633.749 3611.59 643.166C3623.4 652.584 3641.87 660.432 3666.98 666.71L3730.14 682.222C3768.18 691.455 3796.52 705.581 3815.17 724.601C3833.82 743.436 3843.15 767.719 3843.15 797.449C3843.15 821.824 3836.13 843.614 3822.1 862.818C3808.25 882.023 3788.86 897.165 3763.93 908.244C3739 919.324 3710.01 924.864 3676.95 924.864C3633.56 924.864 3597.64 915.446 3569.21 896.611C3540.77 877.776 3522.76 850.261 3515.19 814.068L3577.24 798.557C3583.15 821.455 3594.32 838.628 3610.75 850.077C3627.37 861.526 3649.07 867.25 3675.85 867.25C3706.32 867.25 3730.51 860.787 3748.42 847.861C3766.51 834.75 3775.56 819.054 3775.56 800.773C3775.56 786 3770.39 773.628 3760.05 763.656C3749.71 753.5 3733.83 745.929 3712.41 740.943L3641.5 724.324C3602.54 715.091 3573.92 700.78 3555.63 681.391C3537.54 661.817 3528.49 637.349 3528.49 607.989C3528.49 583.983 3535.23 562.747 3548.71 544.281C3562.37 525.815 3580.93 511.32 3604.38 500.794C3628.02 490.268 3654.8 485.006 3684.71 485.006C3726.81 485.006 3759.87 494.239 3783.87 512.705C3808.06 531.17 3825.24 555.545 3835.39 585.83Z" fill="#C6C6C6"/>
</svg>
